:SAMPLES-PER-SECOND 30
:FULLY-SPECIFIED
:DEGREES
237
root  13.0153 39.2586 6.55637 164.713 58.753 168.113
RightUpLeg  -20.0425 -27.0939 -11.9741
RightLeg  18.6341 0.80674 -0.512065
RightFoot  -2.59591 -1.15377 14.759
RightToes  0.00048216 0.542163 -0.142577
Spine  17.5954 -0.0898241 6.8358
Spine1  8.80553 3.96972 -11.7665
HEad  14.2792 30.999 -16.1508
LeftShoulder1  7.23226 -10.6859 -44.3766
LeftArm  -10.4111 4.52827 -13.9278
LeftForeArm  29.8244 -42.7352 -8.3396
LeftHand  -0.25398 0.0180481 5.50724
RightShoulder  4.75914 8.66906 33.1538
RightArm  -18.6305 -34.0704 37.7848
RightForeArm  -3.3211 6.63945 4.62284
RightHand  -0.472061 -1.97062 -15.5144
LeftUpLeg  1.98503 9.32828 -5.71461
LeftLeg  20.6076 4.17924 1.71727
LeftFoot  -16.5179 0.135909 0.818901
LeftToes  1.06246e-005 4.65855e-005 -8.18505e-006
238
root  11.9511 39.6362 6.66874 165.673 61.2324 169.089
RightUpLeg  -19.2121 -19.4334 -12.3057
RightLeg  28.1071 -3.34179 -2.20682
RightFoot  -3.58859 -0.899777 12.8611
RightToes  0.00048216 0.542163 -0.142577
Spine  16.3114 0.280412 6.2016
Spine1  8.56416 3.71127 -10.1744
HEad  13.4803 27.9755 -15.4127
LeftShoulder1  7.06296 -10.218 -44.8299
LeftArm  -11.4633 9.70408 -16.3939
LeftForeArm  27.4942 -39.2905 -7.42566
LeftHand  -0.25398 0.0180481 5.50724
RightShoulder  4.76199 8.66912 33.1774
RightArm  -17.3674 -33.6658 37.9215
RightForeArm  -1.49709 9.56736 5.23491
RightHand  -0.213627 -3.57084 -12.8027
LeftUpLeg  1.74617 8.885 -5.3207
LeftLeg  17.4881 7.18267 1.01893
LeftFoot  -14.0864 0.129705 1.85874
LeftToes  1.06246e-005 4.65855e-005 -8.18505e-006
239
root  10.9586 39.9438 6.77991 167.224 63.1339 170.05
RightUpLeg  -18.5682 -16.1221 -11.4416
RightLeg  36.6211 -6.54685 -5.44225
RightFoot  -4.18246 -0.719572 11.0338
RightToes  0.00048216 0.542163 -0.142577
Spine  14.3003 0.430295 5.21557
Spine1  8.36196 3.06428 -8.00632
HEad  12.0539 25.884 -13.8884
LeftShoulder1  6.91058 -9.87429 -44.9925
LeftArm  -12.0294 14.887 -19.062
LeftForeArm  24.0976 -34.7113 -6.36501
LeftHand  -0.25398 0.0180481 5.50724
RightShoulder  4.64527 8.34668 33.2563
RightArm  -15.3603 -33.3344 38.2603
RightForeArm  -2.22621 14.2376 5.47641
RightHand  -0.254372 -3.36697 -13.4012
LeftUpLeg  0.823916 7.55713 -5.14124
LeftLeg  14.6743 10.1533 0.209779
LeftFoot  -11.9524 0.0857682 2.53541
LeftToes  1.06246e-005 4.65855e-005 -8.18505e-006
240
root  10.0195 40.0791 6.88217 167.641 64.8859 170.298
RightUpLeg  -16.5905 -14.9734 -10.894
RightLeg  43.7908 -7.57884 -7.97076
RightFoot  -4.14387 -0.630959 9.55999
RightToes  0.00048216 0.542163 -0.142577
Spine  12.9244 0.328926 4.26676
Spine1  7.98969 2.44243 -6.66796
HEad  10.7278 24.3807 -11.9875
LeftShoulder1  6.74928 -9.59397 -44.8756
LeftArm  -10.4725 19.2237 -21.6307
LeftForeArm  19.1945 -28.8304 -5.15861
LeftHand  -0.25398 0.0180481 5.50724
RightShoulder  4.50921 7.9702 33.3558
RightArm  -13.1019 -32.7923 38.9789
RightForeArm  -4.77488 19.316 5.21055
RightHand  -0.462438 -2.07559 -15.8414
LeftUpLeg  0.015019 6.89743 -5.16103
LeftLeg  12.8997 12.6342 -0.478186
LeftFoot  -10.7164 0.047203 3.21146
LeftToes  1.06246e-005 4.65855e-005 -8.18505e-006
241
root  9.10078 40.0765 6.99263 165.99 66.6176 169.073
RightUpLeg  -12.7047 -14.6677 -11.206
RightLeg  48.6332 -7.04919 -8.82253
RightFoot  -4.53682 -0.552722 8.75759
RightToes  0.00048216 0.542163 -0.142577
Spine  12.4396 0.253917 3.02189
Spine1  7.69012 2.01959 -5.85183
HEad  9.66864 23.197 -10.3402
LeftShoulder1  6.68266 -9.47026 -44.8543
LeftArm  -7.43521 22.4563 -24.0044
LeftForeArm  15.1876 -22.3885 -4.26451
LeftHand  -0.25398 0.0180481 5.50724
RightShoulder  4.43179 7.72046 33.5388
RightArm  -12.1618 -31.5814 39.4601
RightForeArm  -5.2125 23.4619 5.26673
RightHand  -0.605884 -1.33774 -17.1842
LeftUpLeg  -0.495658 6.88912 -5.64183
LeftLeg  12.128 14.8869 -0.900924
LeftFoot  -9.89451 0.00981105 3.93203
LeftToes  1.06246e-005 4.65855e-005 -8.18505e-006
242
root  8.20023 40.037 7.09337 162.978 68.4568 166.618
RightUpLeg  -7.57291 -14.7008 -12.0926
RightLeg  50.7588 -6.64373 -8.99745
RightFoot  -5.32851 -0.468758 8.20782
RightToes  0.00048216 0.542163 -0.142577
Spine  12.0702 0.359702 2.01792
Spine1  7.72169 1.98703 -5.3947
HEad  8.96438 22.0388 -8.89753
LeftShoulder1  6.80873 -9.60055 -45.2618
LeftArm  -6.95526 24.7588 -25.9452
LeftForeArm  16.9944 -16.2266 -4.73193
LeftHand  -0.25398 0.0180481 5.50724
RightShoulder  4.38621 7.54952 33.7351
RightArm  -12.0979 -29.6265 39.6556
RightForeArm  -3.19456 26.2485 5.79738
RightHand  -0.58927 -1.44059 -17.0925
LeftUpLeg  -1.01249 7.64131 -6.47781
LeftLeg  11.7868 16.2989 -0.991063
LeftFoot  -8.93773 -0.042731 4.60096
LeftToes  1.06246e-005 4.65855e-005 -8.18505e-006
243
root  7.30767 39.9735 7.16318 159.33 70.7762 163.365
RightUpLeg  -2.15399 -15.0093 -13.2114
RightLeg  50.3089 -6.51057 -8.69219
RightFoot  -4.89373 -0.420428 6.93969
RightToes  0.00048216 0.542163 -0.142577
Spine  11.451 0.662153 2.21001
Spine1  8.02081 2.57183 -5.99868
HEad  8.70336 20.7657 -7.48314
LeftShoulder1  7.03988 -9.85088 -45.9483
LeftArm  -8.95851 26.5032 -27.5757
LeftForeArm  22.9663 -11.4107 -5.38796
LeftHand  -0.25398 0.0180481 5.50724
RightShoulder  4.32912 7.39531 33.7719
RightArm  -11.5627 -27.2355 39.8555
RightForeArm  -0.818857 28.0828 6.11373
RightHand  -0.557245 -1.58685 -16.7721
LeftUpLeg  -1.94167 9.04946 -7.34661
LeftLeg  11.8408 17.3008 -0.700565
LeftFoot  -8.06302 -0.101278 5.23828
LeftToes  1.06246e-005 4.65855e-005 -8.18505e-006
244
root  6.38753 39.8804 7.21619 154.828 73.7531 158.904
RightUpLeg  3.02717 -15.2271 -14.4451
RightLeg  47.2381 -6.02605 -7.27757
RightFoot  -2.54039 -0.501872 6.20286
RightToes  0.00048216 0.542163 -0.142577
Spine  10.6842 1.20405 3.61487
Spine1  8.39363 3.72651 -7.64894
HEad  8.64579 19.5618 -6.45742
LeftShoulder1  7.20385 -10.0204 -46.4457
LeftArm  -10.1093 28.1082 -29.4312
LeftForeArm  27.2971 -8.90853 -5.27788
LeftHand  -0.25398 0.0180481 5.50724
RightShoulder  4.25168 7.25629 33.5667
RightArm  -11.0748 -24.7727 39.8694
RightForeArm  2.09243 29.6311 6.33494
RightHand  -0.47982 -2.01581 -16.137
LeftUpLeg  -3.54629 10.3811 -8.04317
LeftLeg  12.2239 19.3932 -0.144645
LeftFoot  -7.35869 -0.163889 5.98708
LeftToes  1.06246e-005 4.65855e-005 -8.18505e-006
245
root  5.44288 39.7952 7.29654 148.187 76.9819 151.612
RightUpLeg  7.60246 -14.8296 -15.5543
RightLeg  41.4788 -5.2217 -5.21852
RightFoot  -0.727849 -0.811072 8.67971
RightToes  0.00048216 0.542163 -0.142577
Spine  9.75053 2.0061 5.02181
Spine1  8.47032 5.03903 -9.16642
HEad  8.37526 18.8416 -6.21293
LeftShoulder1  7.22404 -10.0641 -46.425
LeftArm  -11.0738 29.9719 -31.7777
LeftForeArm  28.9821 -8.49148 -5.00228
LeftHand  -0.25398 0.0180481 5.50724
RightShoulder  4.15067 7.10597 33.1759
RightArm  -11.416 -22.5389 39.2921
RightForeArm  5.98016 31.4809 6.58398
RightHand  -0.249366 -3.52461 -14.1163
LeftUpLeg  -5.90374 10.9909 -8.59691
LeftLeg  12.3916 22.6524 0.248769
LeftFoot  -6.36523 -0.262762 6.9168
LeftToes  1.06246e-005 4.65855e-005 -8.18505e-006
246
root  4.48093 39.7473 7.43903 137.819 79.7634 139.861
RightUpLeg  11.2266 -14.0607 -16.2159
RightLeg  33.4732 -4.37423 -3.36546
RightFoot  -2.72974 -1.01594 13.437
RightToes  0.00048216 0.542163 -0.142577
Spine  8.8533 2.82611 5.4624
Spine1  7.76846 5.96842 -9.63052
HEad  7.53851 18.9279 -6.54094
LeftShoulder1  7.14173 -10.0435 -45.9524
LeftArm  -12.6164 32.1828 -34.4267
LeftForeArm  28.1682 -9.30218 -4.68586
LeftHand  -0.25398 0.0180481 5.50724
RightShoulder  4.03536 6.92698 32.7428
RightArm  -13.0483 -20.5508 38.0472
RightForeArm  9.38882 33.5906 6.93787
RightHand  -0.0292534 -5.33911 -11.6351
LeftUpLeg  -8.75037 10.8418 -8.97336
LeftLeg  11.7201 25.8103 -0.0356573
LeftFoot  -4.57319 -0.44758 8.01777
LeftToes  1.06246e-005 4.65855e-005 -8.18505e-006
247
root  3.43436 39.6985 7.64187 124.492 81.6341 124.945
RightUpLeg  13.6202 -14.4004 -16.5998
RightLeg  24.7918 -2.56453 -1.57923
RightFoot  -8.18827 -0.517156 16.0852
RightToes  0.00048216 0.542163 -0.142577
Spine  8.64634 3.20762 5.2503
Spine1  6.40423 6.18103 -9.41271
HEad  5.70586 19.6803 -7.02682
LeftShoulder1  7.06268 -10.0421 -45.4322
LeftArm  -14.3025 34.0537 -36.555
LeftForeArm  25.3078 -10.558 -4.34921
LeftHand  -0.25398 0.0180481 5.50724
RightShoulder  3.95664 6.8048 32.4378
RightArm  -15.5224 -18.3612 36.3983
RightForeArm  9.29433 35.3393 7.41906
RightHand  -0.0168969 -5.53774 -11.726
LeftUpLeg  -11.6826 9.86641 -8.8463
LeftLeg  10.3058 29.065 -1.00639
LeftFoot  -1.86143 -0.767941 9.35708
LeftToes  1.06246e-005 4.65855e-005 -8.18505e-006
